<svg width="43" height="43" viewBox="0 0 43 43" fill="none" xmlns="http://www.w3.org/2000/svg">
<g clip-path="url(#clip0)">
<path d="M38.5209 7.16663H4.47914C2.01025 7.16663 0 9.17688 0 11.6458V31.3542C0 33.8231 2.01025 35.8333 4.47914 35.8333H38.5208C40.9897 35.8333 42.9999 33.8231 42.9999 31.3542V11.6458C43 9.17688 40.9897 7.16663 38.5209 7.16663ZM41.2084 31.3541C41.2084 32.8359 40.0026 34.0416 38.5209 34.0416H4.47914C2.9974 34.0416 1.79164 32.8359 1.79164 31.3541V11.6458C1.79164 10.1641 2.9974 8.95835 4.47914 8.95835H38.5208C40.0025 8.95835 41.2083 10.1641 41.2083 11.6458V31.3541H41.2084Z" fill="#9B9B9B"/>
<path d="M42.1041 12.5416H0.895861C0.401361 12.5416 0 12.943 0 13.4375V18.8125C0 19.307 0.401361 19.7083 0.895861 19.7083H42.1042C42.5987 19.7083 43.0001 19.307 43.0001 18.8125V13.4375C43 12.943 42.5986 12.5416 42.1041 12.5416ZM41.2084 17.9166H1.79164V14.3333H41.2083V17.9166H41.2084Z" fill="#9B9B9B"/>
<path d="M17.0209 25.0834H6.27086C5.77636 25.0834 5.375 25.4847 5.375 25.9792C5.375 26.4737 5.77636 26.875 6.27086 26.875H17.0209C17.5154 26.875 17.9167 26.4736 17.9167 25.9791C17.9167 25.4846 17.5154 25.0834 17.0209 25.0834Z" fill="#9B9B9B"/>
<path d="M17.0209 28.6666H6.27086C5.77636 28.6666 5.375 29.068 5.375 29.5625C5.375 30.057 5.77636 30.4584 6.27086 30.4584H17.0209C17.5154 30.4584 17.9167 30.057 17.9167 29.5625C17.9166 29.068 17.5154 28.6666 17.0209 28.6666Z" fill="#9B9B9B"/>
<path d="M34.9376 23.2916H33.146C31.6643 23.2916 30.4585 24.4974 30.4585 25.9791V27.7708C30.4585 29.2525 31.6643 30.4583 33.146 30.4583H34.9376C36.4194 30.4583 37.6251 29.2525 37.6251 27.7708V25.9791C37.6251 24.4975 36.4194 23.2916 34.9376 23.2916ZM35.8335 27.7709C35.8335 28.2654 35.4321 28.6667 34.9376 28.6667H33.146C32.6515 28.6667 32.2501 28.2654 32.2501 27.7709V25.9792C32.2501 25.4847 32.6515 25.0834 33.146 25.0834H34.9376C35.4321 25.0834 35.8335 25.4847 35.8335 25.9792V27.7709Z" fill="#9B9B9B"/>
</g>
<defs>
<clipPath id="clip0">
<rect width="43" height="43" fill="white"/>
</clipPath>
</defs>
</svg>
