<svg width="27" height="21" viewBox="0 0 27 21" fill="none" xmlns="http://www.w3.org/2000/svg">
<path d="M16.3822 7.72364C16.1689 7.51033 15.8221 7.51033 15.6088 7.72364C15.3955 7.93695 15.3955 8.2848 15.6088 8.49704C16.228 9.11619 16.5703 9.93989 16.5703 10.8172C16.5703 12.6264 15.0979 14.0988 13.2887 14.0988C12.4114 14.0988 11.5877 13.7575 10.9685 13.1373C10.7552 12.924 10.4084 12.924 10.1951 13.1373C9.98183 13.3495 9.98183 13.6974 10.1951 13.9107C11.0199 14.7377 12.1193 15.1927 13.2887 15.1927C15.7018 15.1927 17.6642 13.2303 17.6642 10.8172C17.6642 9.64777 17.2092 8.54841 16.3822 7.72364Z" fill="#8C52E5"/>
<path d="M14.051 6.51713C13.8027 6.47339 13.5489 6.44165 13.2886 6.44165C10.8755 6.44165 8.91309 8.40408 8.91309 10.8172C8.91309 11.0775 8.94483 11.3313 8.98964 11.5796C9.03666 11.8443 9.26751 12.0314 9.52676 12.0314C9.5585 12.0314 9.59018 12.0292 9.623 12.0226C9.91943 11.9701 10.1185 11.6857 10.066 11.3893C10.0321 11.2033 10.007 11.0141 10.007 10.8172C10.007 9.00791 11.4793 7.53552 13.2886 7.53552C13.4855 7.53552 13.6748 7.5607 13.8607 7.59351C14.1517 7.65258 14.4416 7.44692 14.4941 7.15049C14.5466 6.85406 14.3475 6.56964 14.051 6.51713Z" fill="#8C52E5"/>
<path d="M26.285 10.4638C26.1614 10.3172 23.2025 6.86386 19.1212 4.74939C18.8564 4.61049 18.5228 4.7155 18.3839 4.9846C18.245 5.25262 18.35 5.58294 18.6191 5.72189C21.7629 7.3496 24.2744 9.8896 25.1332 10.8172C23.8293 12.2294 18.6978 17.3806 13.2886 17.3806C11.453 17.3806 9.60327 16.9375 7.78851 16.0624C7.51941 15.9301 7.19017 16.0449 7.0589 16.3173C6.92656 16.5886 7.04142 16.9156 7.3138 17.0469C9.27731 17.9953 11.2879 18.4744 13.2886 18.4744C20.0281 18.4744 26.0335 11.4692 26.2862 11.1705C26.4589 10.967 26.4579 10.6684 26.285 10.4638Z" fill="#8C52E5"/>
<path d="M16.8779 3.79005C15.6331 3.37108 14.4254 3.15997 13.2888 3.15997C6.54937 3.15997 0.543933 10.1652 0.291245 10.4639C0.131521 10.652 0.118394 10.9255 0.260634 11.13C0.336112 11.2383 2.14431 13.8057 5.27829 15.8874C5.37125 15.9497 5.47519 15.9793 5.5802 15.9793C5.75634 15.9793 5.93026 15.8939 6.03528 15.7331C6.20264 15.4827 6.13373 15.1424 5.88212 14.9762C3.5806 13.4458 2.0054 11.5982 1.41578 10.8467C2.67486 9.47937 7.84019 4.25389 13.2888 4.25389C14.3072 4.25389 15.3979 4.44643 16.5289 4.82598C16.8155 4.92879 17.1262 4.77019 17.2213 4.48248C17.3176 4.1959 17.1645 3.88635 16.8779 3.79005Z" fill="#8C52E5"/>
<path d="M22.9728 1.13297C22.7595 0.919665 22.4127 0.919665 22.1994 1.13297L3.60334 19.7291C3.39003 19.9424 3.39003 20.2891 3.60334 20.5025C3.71056 20.6085 3.85054 20.6622 3.99058 20.6622C4.13061 20.6622 4.27059 20.6086 4.37674 20.5025L22.9728 1.90637C23.1861 1.69306 23.1861 1.34628 22.9728 1.13297Z" fill="#8C52E5"/>
</svg>
