<svg width="27" height="16" viewBox="0 0 27 16" fill="none" xmlns="http://www.w3.org/2000/svg">
<path fill-rule="evenodd" clip-rule="evenodd" d="M1.01184 9.08332C0.502753 8.54896 0.182924 8.18504 0.149178 8.14228C-0.0185418 7.93029 -0.0157475 7.62417 0.156938 7.41778C0.40963 7.11484 6.41364 0.0110891 13.0521 0.0983622C15.0228 0.12427 16.9972 0.641465 18.9193 1.63916C18.9575 1.65893 18.9924 1.68277 19.0238 1.70992C19.057 1.71968 19.0896 1.73279 19.1212 1.74938C23.2025 3.86385 26.1614 7.31719 26.285 7.46379C26.4579 7.66839 26.4589 7.96699 26.2862 8.17049C26.0335 8.46919 20.0281 15.4744 13.2886 15.4744C11.3384 15.4744 9.13651 14.9746 7.20802 14.0709L7 14C6.25237 13.6262 5.45934 13.0843 4.68813 12.479C2.99572 11.2604 1.74497 9.94526 1.01184 9.08332ZM2.86475 9.47727C2.18359 8.79024 1.69174 8.19841 1.41578 7.84669C2.67486 6.47936 7.84019 1.25388 13.2888 1.25388C13.776 1.25388 14.2798 1.29796 14.7967 1.3855C16.0192 1.59978 17.2383 2.01995 18.4392 2.64229C18.4793 2.66347 18.5209 2.67879 18.563 2.68858C18.5808 2.70063 18.5995 2.71176 18.6191 2.72188C21.7629 4.34959 24.2744 6.88959 25.1332 7.81719C23.8293 9.22939 18.6978 14.3806 13.2886 14.3806C11.453 14.3806 9.31476 13.8751 7.5 13C7.47706 12.9887 7.45578 12.9797 7.43597 12.9728C6.93384 12.6928 6.45361 12.3914 5.99791 12.0789C5.96519 12.0402 5.9265 12.0055 5.88212 11.9762C5.57823 11.7741 5.28701 11.5665 5.00904 11.3566C4.18359 10.7166 3.462 10.0635 2.86475 9.47727ZM13.2886 3.44164C13.4966 3.44164 13.7005 3.46191 13.9008 3.49239C15.1032 3.635 16.2233 4.26404 16.9345 5.32233C17.0775 5.53517 17.1899 5.76085 17.2892 5.98892C17.3088 6.03417 17.3215 6.08088 17.3278 6.1279C17.5485 6.65571 17.6642 7.22754 17.6642 7.81719C17.6642 10.2303 15.7018 12.1927 13.2887 12.1927C12.1193 12.1927 11.0199 11.7377 10.1951 10.9107C10.1439 10.8594 10.1049 10.8004 10.0783 10.7374C9.52592 10.1568 9.15361 9.43005 8.99961 8.62472C8.99569 8.60995 8.99236 8.5949 8.98964 8.57959C8.94483 8.33129 8.91309 8.07749 8.91309 7.81719C8.91309 5.40407 10.8755 3.44164 13.2886 3.44164ZM10.0148 8.01214C10.0236 8.04214 10.0299 8.07341 10.0334 8.10576C10.1291 8.98202 10.5587 9.75452 11.2435 10.2818C12.6555 11.3692 14.7248 11.0575 15.8553 9.58694C16.2815 9.03259 16.526 8.38025 16.5685 7.70601C16.5548 7.29216 16.4647 6.89182 16.3052 6.52109C16.2914 6.4986 16.2793 6.47474 16.2691 6.44956C16.2516 6.40919 16.2336 6.3689 16.2149 6.32879C16.06 6.02523 15.8565 5.74476 15.6088 5.49703C15.5765 5.46492 15.5491 5.4297 15.5266 5.39231C14.4415 4.39543 12.7327 4.25384 11.41 5.14422C11.2426 5.25695 11.0954 5.38579 10.9559 5.52C10.9404 5.53473 10.9243 5.54845 10.9077 5.56114C10.3497 6.14971 10.007 6.94423 10.007 7.81719C10.007 7.88298 10.0098 7.9479 10.0148 8.01214Z" fill="#8C52E5"/>
</svg>
