<svg width="22" height="18" viewBox="0 0 22 18" fill="none" xmlns="http://www.w3.org/2000/svg">
<path d="M0.809161 9.71845L8.45989 17.3694C8.67829 17.5878 8.96937 17.7076 9.27974 17.7076C9.59045 17.7076 9.88136 17.5876 10.0998 17.3694L10.7944 16.6746C11.0126 16.4565 11.1328 16.1653 11.1328 15.8547C11.1328 15.5443 11.0126 15.2433 10.7944 15.0252L6.33105 10.5521L20.5113 10.5521C21.1506 10.5521 21.6558 10.0516 21.6558 9.41204L21.6558 8.42978C21.6558 7.79026 21.1506 7.23928 20.5113 7.23928L6.28042 7.23928L10.7942 2.74116C11.0124 2.52276 11.1326 2.23943 11.1326 1.92889C11.1326 1.61869 11.0124 1.33123 10.7942 1.11301L10.0996 0.420447C9.88118 0.20205 9.59028 0.0830356 9.27956 0.0830356C8.96919 0.0830356 8.67811 0.203601 8.45972 0.421996L0.80899 8.07273C0.590078 8.29182 0.469686 8.58427 0.470546 8.89516C0.469857 9.20708 0.590078 9.49971 0.809161 9.71845Z" fill="white"/>
</svg>
