<svg width="22" height="19" viewBox="0 0 22 19" fill="none" xmlns="http://www.w3.org/2000/svg">
<path d="M20.9789 8.94156L13.3282 1.29065C13.1098 1.07226 12.8187 0.952381 12.5084 0.952381C12.1976 0.952381 11.9067 1.07243 11.6883 1.29065L10.9937 1.98545C10.7755 2.20351 10.6553 2.49476 10.6553 2.8053C10.6553 3.11567 10.7755 3.41674 10.9937 3.63479L15.457 8.10794H1.27683C0.637493 8.10794 0.132324 8.60846 0.132324 9.24797V10.2302C0.132324 10.8697 0.637493 11.4207 1.27683 11.4207H15.5077L10.9939 15.9189C10.7757 16.1372 10.6554 16.4206 10.6554 16.7311C10.6554 17.0413 10.7757 17.3288 10.9939 17.547L11.6885 18.2396C11.9069 18.458 12.1978 18.577 12.5085 18.577C12.8189 18.577 13.11 18.4564 13.3284 18.238L20.9791 10.5873C21.198 10.3682 21.3184 10.0757 21.3175 9.76485C21.3182 9.45293 21.198 9.1603 20.9789 8.94156Z" fill="white"/>
</svg>
