<svg width="25" height="21" viewBox="0 0 25 21" fill="none" xmlns="http://www.w3.org/2000/svg">
<path d="M23.6407 9.36384L15.045 0.767918C14.7996 0.522546 14.4726 0.387863 14.1239 0.387863C13.7748 0.387863 13.448 0.52274 13.2026 0.767918L12.4222 1.54854C12.177 1.79352 12.0419 2.12075 12.0419 2.46965C12.0419 2.81835 12.177 3.15661 12.4222 3.40159L17.4368 8.42725H1.50508C0.786773 8.42725 0.219208 8.98959 0.219208 9.7081V10.8117C0.219208 11.5302 0.786773 12.1492 1.50508 12.1492H17.4937L12.4224 17.2029C12.1772 17.4483 12.0421 17.7666 12.0421 18.1155C12.0421 18.4641 12.1772 18.787 12.4224 19.0322L13.2028 19.8103C13.4481 20.0557 13.775 20.1894 14.1241 20.1894C14.4728 20.1894 14.7998 20.0539 15.0452 19.8086L23.6409 11.2128C23.8869 10.9667 24.0221 10.6381 24.0212 10.2888C24.0219 9.93838 23.8869 9.6096 23.6407 9.36384Z" fill="#9B9B9B"/>
</svg>
